<?xml version="1.0" standalone="no"?>
<!DOCTYPE svg PUBLIC "-//W3C//DTD SVG 20010904//EN"
 "http://www.w3.org/TR/2001/REC-SVG-20010904/DTD/svg10.dtd">
<svg version="1.0" xmlns="http://www.w3.org/2000/svg"
 width="260.000000pt" height="260.000000pt" viewBox="0 0 260.000000 260.000000"
 preserveAspectRatio="xMidYMid meet">
<metadata>
Created by potrace 1.11, written by Peter Selinger 2001-2013
</metadata>
<g transform="translate(0.000000,260.000000) scale(0.100000,-0.100000)"
fill="#000000" stroke="none">
<path d="M407 2582 c-42 -46 -48 -84 -42 -270 3 -97 7 -193 9 -212 2 -19 7
-80 10 -135 4 -55 9 -111 11 -125 2 -14 7 -56 10 -95 3 -38 8 -88 10 -110 2
-22 7 -67 10 -100 9 -89 48 -386 66 -505 6 -36 12 -83 15 -105 3 -22 9 -62 14
-90 5 -27 12 -63 14 -80 29 -178 31 -189 57 -315 67 -314 138 -451 227 -436
43 6 58 19 97 81 64 100 157 367 225 640 23 94 44 181 46 195 2 14 9 45 14 70
37 174 84 537 89 689 2 56 9 31 15 -54 8 -102 13 -152 32 -300 49 -384 188
-919 308 -1180 90 -195 203 -189 284 15 21 51 73 246 85 315 12 68 57 329 62
354 2 14 16 107 30 206 14 99 28 195 30 213 3 18 7 54 10 80 3 26 7 58 10 72
2 14 7 54 10 90 4 36 8 76 10 90 2 14 7 59 11 100 3 41 8 89 9 105 2 17 7 75
10 130 4 55 9 111 11 125 2 14 6 122 9 242 5 183 4 222 -10 254 -19 45 -42 65
-75 61 -49 -4 -83 -113 -95 -302 -5 -93 -8 -138 -20 -320 -2 -38 -7 -115 -10
-170 -4 -55 -8 -117 -10 -137 -2 -20 -7 -71 -10 -114 -4 -43 -8 -85 -10 -93
-1 -9 -6 -50 -10 -91 -3 -41 -8 -82 -10 -90 -2 -8 -7 -40 -10 -70 -26 -226
-146 -837 -174 -887 -16 -29 -202 583 -236 774 -3 18 -12 61 -20 95 -25 113
-65 357 -80 496 -3 26 -7 63 -10 82 -3 19 -8 62 -10 95 -3 33 -7 74 -10 91 -2
17 -7 91 -10 165 -11 264 -17 322 -41 400 -29 92 -89 105 -124 26 -32 -74 -46
-176 -65 -502 -4 -60 -9 -118 -10 -127 -2 -9 -7 -57 -10 -105 -4 -48 -8 -95
-10 -103 -2 -8 -7 -40 -10 -70 -4 -30 -8 -64 -10 -75 -1 -11 -6 -47 -10 -80
-4 -33 -9 -62 -10 -65 -2 -3 -6 -26 -10 -50 -34 -235 -127 -605 -228 -910
l-51 -155 -13 45 c-25 81 -78 326 -113 520 -25 143 -30 174 -35 218 -3 20 -7
51 -10 67 -2 17 -7 53 -10 80 -3 28 -8 66 -10 85 -5 35 -11 94 -20 173 -2 23
-7 74 -10 112 -3 39 -8 89 -10 112 -3 23 -7 88 -11 145 -3 57 -7 123 -10 148
-2 25 -6 90 -9 145 -14 277 -32 383 -72 428 -21 22 -55 22 -76 -1z"/>
</g>
</svg>
